Simulation
nRows=27
nColumns=15
endheader
time  TH_x TH_y TH_z SC_y  SC_z  SC_x  AC_y  AC_z  AC_x  GH_y  GH_z  GH_yy  EL_x  PS_y
1.3999999999999995  0.000000  0.000000  0.000000  -30.926364674872687  8.716550936234134  24.029156948082264  71.49240841450379  10.330012388837398  -5.0625894424346045  -0.9329432253191525  58.173465053479354  -30.103628407563406  24.46033173009672  120.000000
1.4279999999999995  0.000000  0.000000  0.000000  -31.80557416559579  8.948565256086495  25.091697939909192  71.94825776387455  10.020434016341545  -4.695904429507849  -1.1677109977429796  58.13626790269531  -30.59299367524216  24.672304124877126  120.000000
1.4559999999999995  0.000000  0.000000  0.000000  -32.60642613305006  9.146821472990656  26.116272078261392  72.34145234050122  9.64579837247742  -4.407758713530044  -1.2972124144609338  58.04104998672589  -31.083690728159905  24.849606817218188  120.000000
1.4839999999999995  0.000000  0.000000  0.000000  -33.29416305166903  9.31481322235825  27.082078216509796  72.66060106557036  9.213349331076412  -4.201245854276611  -1.3276445107092134  57.886536687602195  -31.561184853725848  24.990459295379832  120.000000
1.5119999999999996  0.000000  0.000000  0.000000  -33.83780284282705  9.455201303539502  27.969274436747906  72.89618872850077  8.731882914827644  -4.079574384676943  -1.267825351205739  57.673906167661826  -32.011675472791204  25.093864078653947  120.000000
1.5399999999999994  0.000000  0.000000  0.000000  -34.21259204290516  9.569259843212306  28.75963198302793  73.04129914968502  8.211216791498597  -4.0464445981052295  -1.1279335586053043  57.40721887176898  -32.423485416657606  25.159312091832685  120.000000
1.5679999999999994  0.000000  0.000000  0.000000  -34.401686444747554  9.65646876337448  29.437154113202556  73.09215870033924  7.661658198937488  -4.1055493286565765  -0.9182305422727436  57.093398797092384  -32.78824066508256  25.18662746473885  120.000000
1.5959999999999994  0.000000  0.000000  0.000000  -34.39746515278594  9.714480020889013  29.98867556586156  73.04837225759857  7.093756689417275  -4.259935258672064  -0.6478805186697714  56.74170554459826  -33.10163880689138  25.175959272959147  120.000000
1.6239999999999994  0.000000  0.000000  0.000000  -34.2028876782667  9.739289214581175  30.40427389078518  72.91320272450014  6.518214670142697  -4.511430815915197  -0.32432119532085363  56.36258779599344  -33.36405696540285  25.127826041015734  120.000000
1.6519999999999995  0.000000  0.000000  0.000000  -33.83214046757154  9.725554118884787  30.67759633188464  72.69337744945905  5.946047194641238  -4.860208707286504  0.04683086726613995  55.96637561599599  -33.58056757054756  25.043223820467368  120.000000
1.6799999999999995  0.000000  0.000000  0.000000  -33.309849929411925  9.667065982591279  30.80599831479211  72.39857473692142  5.388631037708918  -5.304167978324898  0.46133970843908306  55.56257265902283  -33.76014978136437  24.92384041661468  120.000000
1.7079999999999993  0.000000  0.000000  0.000000  -32.667531522479074  9.557547665207968  30.790120462001642  72.04021888724456  4.857388766849456  -5.838751345552267  0.9154712744429854  55.15935141429904  -33.91371650058085  24.772110895998342  120.000000
1.7359999999999993  0.000000  0.000000  0.000000  -31.938660953135358  9.391764598150166  30.632845448970507  71.63012551508668  4.362814016088497  -6.456919020574352  1.4049422686212283  54.76335832225169  -34.05133836347958  24.591201434261194  120.000000
1.7639999999999993  0.000000  0.000000  0.000000  -31.15308875906051  9.166301618692687  30.33826997987245  71.17837832671944  3.9135359704842116  -7.149187458256744  1.9239796433090322  54.379598346068086  -34.17903760153847  24.38502232562613  120.000000
1.7919999999999994  0.000000  0.000000  0.000000  -30.332680529987524  8.88046753875981  29.91065591665513  70.69167764803788  3.515301675806471  -7.903694999482274  2.4646790882934724  54.011542484169595  -34.29598901154385  24.15815340310085  120.000000
1.8199999999999994  0.000000  0.000000  0.000000  -29.488896289210516  8.536869079270794  29.35394404260584  70.17221705456781  3.1705956437334493  -8.70675503404879  3.01678020011696  53.66104525601402  -34.39280606266155  23.915684805649114  120.000000
1.8479999999999994  0.000000  0.000000  0.000000  -28.6236963770098  8.141276305591811  28.671802336388915  69.61787632949382  2.878709508383275  -9.543320337335986  3.568075960243416  53.328244293208016  -34.45168845562205  23.662890272803978  120.000000
1.8759999999999994  0.000000  0.000000  0.000000  -27.73261952097508  7.701771504572692  27.86822643572429  69.02323669405676  2.6363927750209712  -10.397621842377449  4.105303343893474  53.01130292972993  -34.44818166503788  23.40482341207379  120.000000
1.9039999999999992  0.000000  0.000000  0.000000  -26.809217061194513  7.227717280937919  26.94826514909154  68.38151818837596  2.438674797986695  -11.253674414463328  4.615469384340227  52.70633649009222  -34.35410129641794  23.145781767948822  120.000000
1.9319999999999993  0.000000  0.000000  0.000000  -25.84877517646433  6.728624381219827  25.918960526067433  67.68653783060036  2.2797644088900575  -12.09584774901501  5.0874032531673725  52.40742256414152  -34.14083865949448  22.888967335758032  120.000000
1.9599999999999993  0.000000  0.000000  0.000000  -24.85112375094404  6.2132993385982065  24.790330795421696  66.93470087994154  2.1530513280759402  -12.909539024487213  5.513186467000881  52.10667400963387  -33.78274901538136  22.636283692652846  120.000000
1.9879999999999993  0.000000  0.000000  0.000000  -23.82149975796859  5.6890700491572535  23.576010930998905  66.125569903666  2.0511152041851264  -13.681963554850682  5.888845573386697  51.794143848075294  -33.26002194181958  22.38862998849  120.000000
2.015999999999999  0.000000  0.000000  0.000000  -22.770149761587785  5.161741330611702  22.29297136574893  65.26224939208409  1.9659465833339962  -14.402662244227255  6.21439866781644  51.45801564670626  -32.56133793353993  22.146515402816046  120.000000
2.043999999999999  0.000000  0.000000  0.000000  -21.710462741654176  4.635773716094076  20.961182858406016  64.35106668120739  1.8896290883378435  -15.064134005540573  6.493230596079402  51.08486802372603  -31.686002410020816  21.91102030864213  120.000000
2.071999999999999  0.000000  0.000000  0.000000  -20.657462030710505  4.114694445972638  19.602796089275603  63.40162506710223  1.814659469959737  -15.661924924586828  6.731170885532315  50.660238792544185  -30.64548312260904  21.68467571171778  120.000000
2.099999999999999  0.000000  0.000000  0.000000  -19.626152447253602  3.601141061413443  18.241155207005903  62.42635509238262  1.7344110603131537  -16.194533177114163  6.935266585041927  50.1692599362289  -29.46341856137519  21.472104172198424  120.000000
2.1279999999999992  0.000000  0.000000  0.000000  -18.631166521146415  3.097138244050356  16.89937689193604  61.4403198513921  1.6430308656951014  -16.66290007794166  7.112843394055472  49.59758481043811  -28.17336174222833  21.279966769784803  120.000000
